<?xml version="1.0" encoding="UTF-8"?>
<svg version="1.1" xmlns="http://www.w3.org/2000/svg" width="1200" height="1200">
<path d="M0 0 C1.47919922 0.81597656 1.47919922 0.81597656 2.98828125 1.6484375 C24.41407688 14.36128295 36.06123059 34.95336651 48 56 C49.307577 58.2883417 50.61618502 60.57609454 51.92578125 62.86328125 C54.28143828 66.97832278 56.6339494 71.09512881 58.98236084 75.21430969 C63.13095597 82.4900873 67.30887626 89.74863808 71.5 97 C76.71642486 106.02530846 81.89914975 115.06927803 87.0625 124.125 C91.99596786 132.77695951 96.96828511 141.40472125 102 150 C109.07704928 162.09151183 116.02654 174.25455115 122.96337891 186.42675781 C126.32652044 192.32801676 129.69368174 198.22698012 133.0625 204.125 C133.39359772 204.70469543 133.72469543 205.28439087 134.06582642 205.88165283 C141.3376553 218.6106208 148.66488261 231.30742721 156 244 C164.03574672 257.90493087 172.0505128 271.82123105 180.00997925 285.7699585 C185.42889381 295.26555233 190.88238875 304.74078434 196.35327148 314.20654297 C200.94943607 322.16438754 205.51065947 330.14177199 210.0625 338.125 C214.99596786 346.77695951 219.96828511 355.40472125 225 364 C230.00745104 372.55549411 234.96154859 381.14024245 239.875 389.75 C240.20788025 390.3332605 240.5407605 390.916521 240.88372803 391.51745605 C243.59800516 396.27436898 246.30942831 401.03290718 249.02075195 405.79150391 C251.38751434 409.94508977 253.75545323 414.09800191 256.125 418.25 C256.45704437 418.83192108 256.78908875 419.41384216 257.13119507 420.01339722 C262.33776536 429.13412897 267.61448027 438.21232052 272.92236328 447.27441406 C277.39712856 454.92905385 281.76647574 462.63957372 286.11279297 470.36767578 C289.95061921 477.17799285 293.86162428 483.94221091 297.8125 490.6875 C302.88328797 499.3467368 307.90186339 508.03437862 312.875 516.75 C313.20760834 517.33280731 313.54021667 517.91561462 313.88290405 518.51608276 C316.5974548 523.27345409 319.30916408 528.03244343 322.02075195 532.79150391 C324.05231215 536.35682156 326.08494712 539.92152288 328.1187439 543.48556519 C329.12033247 545.24181564 330.1203667 546.99894512 331.12036133 548.75610352 C334.32081058 554.36706523 337.55333563 559.9535753 340.87109375 565.49609375 C357.9487123 594.07378465 368.21115063 624.4567854 359.76586914 658.04931641 C355.10661208 674.97946848 347.63343161 689.85379615 336 703 C335.46117187 703.68191406 334.92234375 704.36382813 334.3671875 705.06640625 C321.34404995 721.26352455 300.11628521 732.62904564 280 737 C279.23035488 737.17156292 278.46070977 737.34312583 277.66774207 737.51988763 C265.5784025 739.77329954 253.30567121 739.28038391 241.05766296 739.26069641 C238.39734504 739.26371884 235.73703867 739.26752832 233.07672435 739.27228898 C227.30397943 739.28102353 221.53127 739.2823729 215.75852013 739.27878571 C207.17390309 739.27346537 198.58932024 739.27958736 190.00470692 739.28786864 C173.7787021 739.30309159 157.55271291 739.30481547 141.32670244 739.30234561 C128.79520564 739.30051144 116.26371395 739.30227516 103.73221779 739.30657005 C101.93047328 739.30717246 100.12872877 739.30777366 98.32698426 739.30837366 C95.61177685 739.30928093 92.89656944 739.3101896 90.18136203 739.31110601 C64.94377962 739.31953297 39.70619914 739.32387299 14.46861553 739.31969929 C13.04214078 739.31946472 13.04214078 739.31946472 11.58684837 739.31922542 C6.76712222 739.31841966 1.94739609 739.31757389 -2.87233005 739.31671212 C-3.82950656 739.31654103 -4.78668307 739.31636994 -5.77286492 739.31619367 C-7.70850704 739.31584701 -9.64414915 739.31549848 -11.57979126 739.31514808 C-41.69765562 739.30979102 -71.81549071 739.31772194 -101.93334961 739.33618164 C-135.78791767 739.35690743 -169.6424676 739.36762328 -203.49704236 739.36360615 C-207.10828507 739.36321082 -210.71952778 739.36284927 -214.33077049 739.36250877 C-215.21991928 739.36241804 -216.10906807 739.36232731 -217.02516076 739.36223383 C-230.43488056 739.36106893 -243.84458203 739.36770798 -257.25429726 739.37832069 C-272.50859971 739.3903811 -287.7628618 739.39192193 -303.01716486 739.37953053 C-311.54777795 739.37291064 -320.07829449 739.37451287 -328.60889981 739.38811904 C-334.31513089 739.39638406 -340.0212899 739.39363944 -345.72751516 739.38214377 C-348.97336326 739.37590761 -352.21898737 739.37590889 -355.46483115 739.38600711 C-372.13620265 739.43426017 -387.80403735 738.93074699 -403.5625 732.875 C-404.35350098 732.5749707 -405.14450195 732.27494141 -405.95947266 731.96582031 C-431.65324166 721.82476725 -452.68879796 701.22649677 -463.875 676 C-475.2244239 649.08370238 -475.59786576 620.45641751 -465.6875 593.125 C-457.92371671 574.68357018 -446.70270324 557.37474304 -436.59375 540.15234375 C-432.6991738 533.50555738 -428.87719996 526.81780045 -425.0625 520.125 C-419.28824026 509.99665929 -413.48108818 499.88796442 -407.64697266 489.79394531 C-403.3926282 482.42778163 -399.16650945 475.04587811 -394.953125 467.65625 C-389.68135856 458.4103827 -384.3770493 449.18518608 -379 440 C-373.99254896 431.44450589 -369.03845141 422.85975755 -364.125 414.25 C-363.79211975 413.6667395 -363.4592395 413.083479 -363.11627197 412.48254395 C-360.74261615 408.32258771 -358.371073 404.16142877 -356 400 C-353.29310621 395.24917803 -350.585215 390.49892823 -347.875 385.75 C-347.54295563 385.16807892 -347.21091125 384.58615784 -346.86880493 383.98660278 C-341.66223464 374.86587103 -336.38551973 365.78767948 -331.07763672 356.72558594 C-327.15643519 350.01788546 -323.30868396 343.27214681 -319.5 336.5 C-315.13020123 328.73014587 -310.69217207 321.00493746 -306.1875 313.3125 C-303.78954915 309.2095669 -301.39393321 305.10527854 -299 301 C-298.6503418 300.40074707 -298.30068359 299.80149414 -297.94042969 299.18408203 C-295.70893335 295.35766971 -293.48597138 291.52647875 -291.27261353 287.68954468 C-290.55508115 286.44834706 -289.83504757 285.20859168 -289.11239624 283.97036743 C-288.10343301 282.24061958 -287.10425208 280.50517703 -286.10546875 278.76953125 C-285.52949951 277.77542236 -284.95353027 276.78131348 -284.36010742 275.75708008 C-282.97277585 272.9448138 -282.08772861 271.13592614 -282 268 C-283.14055839 265.49541314 -284.293934 263.35276795 -285.7421875 261.0390625 C-286.14398224 260.3714389 -286.54577698 259.70381531 -286.95974731 259.01596069 C-288.25126505 256.87705848 -289.56254267 254.75110362 -290.875 252.625 C-291.72009915 251.23389163 -292.56386233 249.84197073 -293.40625 248.44921875 C-295.09580376 245.66036918 -296.79283451 242.87629721 -298.49633789 240.09594727 C-305.1415171 229.24163728 -311.62163507 218.28693968 -318.11108398 207.33911133 C-323.71887568 197.8795952 -329.33016946 188.42250945 -335 179 C-340.62649361 169.64939469 -346.19203812 160.26289967 -351.75927734 150.87695312 C-356.93486345 142.15210543 -362.12633293 133.43752302 -367.35668945 124.74536133 C-372.96540654 115.41300659 -378.51252696 106.04394335 -384.06445312 96.67773438 C-387.84979066 90.29361942 -391.64510613 83.91594612 -395.46875 77.5546875 C-398.62941687 72.29616096 -401.7695698 67.02591673 -404.89453125 61.74609375 C-405.29979538 61.06167709 -405.70505951 60.37726044 -406.12260437 59.67210388 C-407.77436921 56.88216126 -409.42581971 54.09203733 -411.07495117 51.30053711 C-412.30498265 49.21900043 -413.53709198 47.13870548 -414.76953125 45.05859375 C-415.13625443 44.43665634 -415.5029776 43.81471893 -415.8808136 43.17393494 C-417.59068067 40.29140539 -419.35135867 37.48117023 -421.23120117 34.70532227 C-423.82653929 30.73583412 -423.79999134 27.5855174 -423 23 C-420.6077375 18.02409401 -417.02608305 14.31594023 -412 12 C-407.37110715 11.07260858 -404.2399389 11.30855954 -400.0859375 13.625 C-396.60301071 16.305531 -393.96845544 19.18532979 -391.1875 22.5625 C-390.66760498 23.18165283 -390.14770996 23.80080566 -389.61206055 24.4387207 C-388.06582512 26.28531598 -386.53111643 28.14085996 -385 30 C-384.18789063 30.98226562 -383.37578125 31.96453125 -382.5390625 32.9765625 C-380.34914051 35.64288857 -378.17233366 38.31933232 -376 41 C-370.76188678 47.44618257 -365.46458777 53.83424852 -360.08642578 60.16357422 C-356.44163292 64.45972273 -352.87227136 68.8135055 -349.31640625 73.18359375 C-346.72212734 76.33785192 -344.08393735 79.4520298 -341.4375 82.5625 C-337.56758198 87.11284316 -333.80040103 91.72832835 -330.08984375 96.41015625 C-327.16779685 100.03130969 -324.15178514 103.56954569 -321.13671875 107.11328125 C-317.47306256 111.42465566 -313.88731372 115.79501873 -310.31640625 120.18359375 C-307.72212734 123.33785192 -305.08393735 126.4520298 -302.4375 129.5625 C-298.56758198 134.11284316 -294.80040103 138.72832835 -291.08984375 143.41015625 C-288.16779685 147.03130969 -285.15178514 150.56954569 -282.13671875 154.11328125 C-278.468844 158.42962004 -274.87873679 162.8047916 -271.3046875 167.19921875 C-268.77967236 170.2677541 -266.20529169 173.29052042 -263.625 176.3125 C-259.19246308 181.50592711 -254.93968483 186.82009074 -250.79150391 192.2434082 C-248.0644496 195.77592378 -245.20945648 198.91708123 -242 202 C-241.64921387 201.36835937 -241.29842773 200.73671875 -240.93701172 200.0859375 C-233.87944225 187.39282908 -226.73855764 174.76035938 -219.3918457 162.23193359 C-214.89678926 154.55902601 -210.46639934 146.85046194 -206.0625 139.125 C-200.28807471 128.99675317 -194.48108881 118.88796552 -188.64697266 108.79394531 C-184.39205417 101.42678773 -180.16540391 94.04386855 -175.95147705 86.65322876 C-169.42580987 75.2090555 -162.84726301 63.79743895 -156.17578125 52.4375 C-154.18137117 49.03860095 -152.21817638 45.62603707 -150.29296875 42.1875 C-135.75146083 16.38977737 -113.28269795 -3.1488985 -84.5 -11.3125 C-54.82435401 -18.52253703 -26.48379879 -14.79566456 0 0 Z M-96 58 C-98.54074568 61.43717813 -100.66704744 65.03707287 -102.74755859 68.76806641 C-104.23962436 71.42702649 -105.76916408 74.06284263 -107.30078125 76.69921875 C-110.21788358 81.7255033 -113.11896446 86.76073898 -116.01243591 91.80065918 C-118.86287994 96.76443139 -121.72540578 101.72115554 -124.58959961 106.67700195 C-130.76082 117.3569882 -136.89675489 128.05671522 -143.00997925 138.7699585 C-148.42889381 148.26555233 -153.88238875 157.74078434 -159.35327148 167.20654297 C-163.60759005 174.57251198 -167.83358054 181.95427971 -172.046875 189.34375 C-177.31864144 198.5896173 -182.6229507 207.81481392 -188 217 C-193.00745104 225.55549411 -197.96154859 234.14024245 -202.875 242.75 C-203.20788025 243.3332605 -203.5407605 243.916521 -203.88372803 244.51745605 C-206.25738385 248.67741229 -208.628927 252.83857123 -211 257 C-213.70689379 261.75082197 -216.414785 266.50107177 -219.125 271.25 C-219.45704437 271.83192108 -219.78908875 272.41384216 -220.13119507 273.01339722 C-225.33776536 282.13412897 -230.61448027 291.21232052 -235.92236328 300.27441406 C-239.84356481 306.98211454 -243.69131604 313.72785319 -247.5 320.5 C-251.86979081 328.26983997 -256.30710911 335.99549293 -260.8125 343.6875 C-265.88328797 352.3467368 -270.90186339 361.03437862 -275.875 369.75 C-276.37391251 370.62421097 -276.37391251 370.62421097 -276.88290405 371.51608276 C-279.25683235 375.67649804 -281.62866277 379.83810748 -284 384 C-286.70689379 388.75082197 -289.414785 393.50107177 -292.125 398.25 C-292.45704437 398.83192108 -292.78908875 399.41384216 -293.13119507 400.01339722 C-298.33776536 409.13412897 -303.61448027 418.21232052 -308.92236328 427.27441406 C-312.84356481 433.98211454 -316.69131604 440.72785319 -320.5 447.5 C-324.86979081 455.26983997 -329.30710911 462.99549293 -333.8125 470.6875 C-338.88328797 479.3467368 -343.90186339 488.03437862 -348.875 496.75 C-349.20760834 497.33280731 -349.54021667 497.91561462 -349.88290405 498.51608276 C-352.25683235 502.67649804 -354.62866277 506.83810748 -357 511 C-359.70689379 515.75082197 -362.414785 520.50107177 -365.125 525.25 C-365.45704437 525.83192108 -365.78908875 526.41384216 -366.13119507 527.01339722 C-371.33776536 536.13412897 -376.61448027 545.21232052 -381.92236328 554.27441406 C-386.38974674 561.91642633 -390.76090102 569.60941423 -395.08642578 577.33251953 C-397.92203676 582.38044455 -400.81111407 587.38764683 -403.78515625 592.35546875 C-404.73068359 593.94294922 -404.73068359 593.94294922 -405.6953125 595.5625 C-406.89772891 597.57491239 -408.10928333 599.58190716 -409.33203125 601.58203125 C-417.81604788 615.81456382 -420.89014869 629.75862922 -417 646 C-412.61755493 660.04856384 -403.95073967 671.92511117 -390.88720703 678.87402344 C-381.19825025 683.85721181 -372.78757011 685.30225099 -361.99064827 685.25447559 C-360.90975357 685.25768207 -359.82885887 685.26088855 -358.71520978 685.26419219 C-355.09232243 685.27249527 -351.46960027 685.26656671 -347.84671021 685.26069641 C-345.22340819 685.26371694 -342.60010705 685.26760593 -339.97680748 685.27228898 C-334.27267119 685.28104271 -328.56857081 685.28236603 -322.86442947 685.27878571 C-314.38203566 685.27347561 -305.89967656 685.27957709 -297.41728652 685.28786864 C-281.38615659 685.30310834 -265.35504245 685.30481375 -249.32390679 685.30234561 C-236.94482666 685.30051292 -224.5657517 685.30227205 -212.18667221 685.30657005 C-210.40815263 685.30717245 -208.62963304 685.30777365 -206.85111346 685.30837366 C-204.17105465 685.30928091 -201.49099584 685.31018958 -198.81093704 685.31110601 C-173.89343881 685.31953549 -148.97594253 685.32387125 -124.05844307 685.31969929 C-123.11911549 685.31954291 -122.17978791 685.31938654 -121.21199586 685.31922542 C-116.45111554 685.31841964 -111.69023523 685.31757387 -106.92935492 685.31671212 C-105.51106682 685.31645549 -105.51106682 685.31645549 -104.06412644 685.31619367 C-102.1520448 685.31584702 -100.23996315 685.31549849 -98.32788151 685.31514808 C-68.5732309 685.3097904 -38.81860992 685.31772265 -9.06396484 685.33618164 C24.36606066 685.35689645 57.79606781 685.36762538 91.22610009 685.36360615 C94.79041362 685.36321081 98.35472715 685.36284926 101.91904068 685.36250877 C102.79666423 685.36241804 103.67428778 685.36232731 104.57850598 685.36223383 C117.82816164 685.36106777 131.07779877 685.36771681 144.3274498 685.37832069 C159.39534356 685.39036744 174.46319648 685.39193767 189.53109084 685.37953053 C197.96275484 685.37289851 206.39432121 685.37454088 214.82597741 685.38811904 C221.12171577 685.39732807 227.41734638 685.39085457 233.71307684 685.37827124 C236.26009294 685.37561277 238.80712039 685.37802674 241.35412537 685.38600711 C244.81591637 685.39610143 248.27719548 685.38770047 251.73896599 685.37473011 C253.22230687 685.38569413 253.22230687 685.38569413 254.73561424 685.39687964 C268.74952696 685.28804217 282.61589591 680.204713 292.8359375 670.44921875 C303.66834829 658.18943253 309.11070931 644.53460706 308.36328125 628.11328125 C307.33409009 614.2367255 299.83073541 602.75517083 293 591 C292.46552246 590.07783691 291.93104492 589.15567383 291.38037109 588.20556641 C288.50950388 583.25992626 285.62307289 578.32357598 282.73046875 573.390625 C278.81630293 566.70310551 274.96439862 559.98064489 271.125 553.25 C270.79257294 552.6674646 270.46014587 552.0849292 270.11764526 551.48474121 C267.40291346 546.72709398 264.69099898 541.96784274 261.97924805 537.20849609 C259.61248568 533.05491026 257.24461806 528.90195739 254.875 524.75 C254.54195862 524.16641724 254.20891724 523.58283447 253.86578369 522.98156738 C249.28714649 514.96221532 244.66449635 506.96973138 240 499 C232.923078 486.90841215 225.97346095 474.74545051 219.03662109 462.57324219 C215.67347956 456.67198324 212.30631826 450.77301988 208.9375 444.875 C208.60640228 444.29530457 208.27530457 443.71560913 207.93417358 443.11834717 C200.6623447 430.3893792 193.33511739 417.69257279 186 405 C177.96425328 391.09506913 169.9494872 377.17876895 161.99002075 363.2300415 C156.57110619 353.73444767 151.11761125 344.25921566 145.64672852 334.79345703 C141.05056393 326.83561246 136.48934053 318.85822801 131.9375 310.875 C127.00403214 302.22304049 122.03171489 293.59527875 117 285 C111.99254896 276.44450589 107.03845141 267.85975755 102.125 259.25 C101.62567963 258.37510925 101.62567963 258.37510925 101.11627197 257.48254395 C98.40199484 252.72563102 95.69057169 247.96709282 92.97924805 243.20849609 C90.61248566 239.05491023 88.24454677 234.90199809 85.875 230.75 C85.37693344 229.87711838 85.37693344 229.87711838 84.86880493 228.98660278 C79.66223464 219.86587103 74.38551973 210.78767948 69.07763672 201.72558594 C64.60287144 194.07094615 60.23352426 186.36042628 55.88720703 178.63232422 C52.04938079 171.82200715 48.13837572 165.05778909 44.1875 158.3125 C39.11671203 149.6532632 34.09813661 140.96562138 29.125 132.25 C28.62608749 131.37578903 28.62608749 131.37578903 28.11709595 130.48391724 C25.4025452 125.72654591 22.69083592 120.96755657 19.97924805 116.20849609 C15.64147867 108.59586135 11.29801142 100.98657166 6.94042969 93.38525391 C5.64801545 91.13052116 4.35699671 88.87498793 3.06738281 86.61865234 C1.21827881 83.38770124 -0.63958534 80.16194861 -2.5 76.9375 C-3.03898926 75.99293945 -3.57797852 75.04837891 -4.13330078 74.07519531 C-13.16429879 58.49415101 -22.65930421 46.1373374 -40.6015625 40.9609375 C-61.62395986 36.1442426 -81.33028802 41.70286685 -96 58 Z " fill="#00AEEF" transform="translate(647,371)"/>
<path d="M0 0 C31.68 0 63.36 0 96 0 C93.69961708 42.55708411 93.69961708 42.55708411 92.32006836 63.63964844 C92.16359768 66.05410717 92.00729765 68.46857696 91.85115051 70.88305664 C91.43571943 77.29874238 91.01781968 83.71426486 90.59927821 90.12974834 C90.33706119 94.15205844 90.0755001 98.17441057 89.81427193 102.19678497 C89.74850281 103.20947582 89.74850281 103.20947582 89.68140503 104.24262507 C89.59226011 105.61529862 89.50311691 106.98797227 89.41397543 108.36064604 C88.58702386 121.09329746 87.75762832 133.82578873 86.92733789 146.5582228 C86.21676684 157.45568033 85.50837446 168.35327776 84.80151367 179.25097656 C83.97504106 191.99272218 83.14722245 204.73437919 82.31727511 217.47589898 C82.22881908 218.83395136 82.1403648 220.19200385 82.05191231 221.55005646 C81.98666969 222.55174172 81.98666969 222.55174172 81.92010904 223.57366304 C81.61522068 228.25610842 81.311308 232.93861635 81.0077343 237.62114716 C80.60000259 243.90893096 80.19025104 250.19657995 79.77894402 256.48413086 C79.62867557 258.78629199 79.47910665 261.08849891 79.33029556 263.3907547 C79.12684929 266.53649 78.9208502 269.68204827 78.71421814 272.82757568 C78.627251 274.1861546 78.627251 274.1861546 78.53852695 275.57217956 C78.48203497 276.42419645 78.42554299 277.27621334 78.36733913 278.15404892 C78.3201988 278.87786436 78.27305846 279.6016798 78.22448963 280.34742904 C77.89513428 284.23909407 77.43129883 288.11831055 77 292 C57.86 292 38.72 292 19 292 C16.70252442 267.87650645 16.70252442 267.87650645 16.11410522 258.58868408 C16.04297598 257.50720053 15.97184675 256.42571699 15.89856207 255.31146121 C15.66686804 251.77716357 15.43959588 248.24259736 15.21240234 244.70800781 C15.04488403 242.13824787 14.87709558 239.56850552 14.70906067 236.9987793 C14.30427804 230.80046043 13.90285247 224.60192877 13.50269912 218.40330949 C13.17733339 213.36424424 12.85068356 208.32526369 12.5231514 203.28633881 C12.47624124 202.56463796 12.42933108 201.8429371 12.38099939 201.09936653 C12.28565663 199.63263612 12.19031068 198.16590592 12.0949616 196.69917592 C11.20540197 183.013129 10.31966312 169.32683693 9.43530281 155.64045319 C8.67754693 143.91473487 7.91659936 132.18922723 7.15332031 120.46386719 C6.26401683 106.80250935 5.37659307 93.14103161 4.49221957 79.47935367 C4.39788744 78.02219298 4.30355328 76.56503243 4.20921707 75.10787201 C4.16281717 74.39113627 4.11641727 73.67440053 4.06861132 72.93594553 C3.74252781 67.90090548 3.41512041 62.86595253 3.08720016 57.8310318 C2.64611349 51.05786014 2.20813866 44.28449402 1.77223778 37.51098633 C1.61199238 35.02812 1.45076104 32.54531708 1.2884655 30.06258392 C1.06692618 26.67106082 0.84897921 23.27932504 0.63192749 19.88751221 C0.56714561 18.90862384 0.50236373 17.92973547 0.43561876 16.92118382 C0.37763443 16.00356542 0.3196501 15.08594702 0.25990868 14.140522 C0.20935086 13.3594292 0.15879304 12.5783364 0.10670316 11.77357411 C-0.04417322 7.85178938 0 3.92468588 0 0 Z " fill="#00AEEF" transform="translate(544,569)"/>
<path d="M0 0 C9.51304556 6.86874137 15.78440995 16.83612897 19.01171875 28.140625 C20.78216648 43.39008143 18.86704533 56.50214417 9.5546875 69.015625 C1.33470036 78.92601272 -10.29274612 84.92563975 -23.0703125 86.5390625 C-36.60060721 87.33042068 -48.97531389 83.76241037 -59.3046875 74.9921875 C-69.37648424 65.1837057 -74.46774564 53.50789323 -74.9453125 39.5390625 C-74.77590777 25.6666974 -69.56212177 13.88203012 -60.0703125 3.921875 C-43.25395818 -12.064725 -18.9742491 -12.30598264 0 0 Z " fill="#00AEEF" transform="translate(619.6953125,906.3359375)"/>
<path d="M0 0 C6.66814537 5.25020641 10.61544723 11.62884807 12 20 C12.10036086 22.31257414 12.14821039 24.62766805 12.16113281 26.94238281 C12.16858017 27.96054832 12.16858017 27.96054832 12.17617798 28.99928284 C12.19072305 31.23390741 12.19758931 33.46846096 12.203125 35.703125 C12.20736607 36.85436481 12.20736607 36.85436481 12.21169281 38.028862 C12.2266558 42.09167319 12.23590305 46.15444915 12.24023438 50.21728516 C12.24570987 54.39437573 12.2697265 58.57113885 12.29820633 62.74812698 C12.31691864 65.97738559 12.32204289 69.20656672 12.32357025 72.43587494 C12.32657874 73.97471656 12.33454565 75.51355741 12.34775543 77.05234528 C12.44943681 89.80910459 11.23491048 99.50702815 2 109 C-4.91452493 114.58324115 -12.34852344 116.52185578 -21.16796875 116.3046875 C-30.17404313 115.33575812 -37.07358652 110.68838093 -43 104 C-46.79568575 98.11773563 -48.12460512 92.80094883 -48.20874023 85.87329102 C-48.21852402 85.15085709 -48.2283078 84.42842316 -48.23838806 83.68409729 C-48.26831956 81.29071883 -48.28973087 78.89739666 -48.30859375 76.50390625 C-48.31516558 75.68316053 -48.3217374 74.86241482 -48.32850838 74.01679802 C-48.36110517 69.66526895 -48.38554543 65.31376425 -48.4050293 60.9621582 C-48.42277642 57.37813097 -48.45748826 53.79490036 -48.50756836 50.21118164 C-48.56815491 45.86985889 -48.59855833 41.52926921 -48.60820198 37.18754387 C-48.61669935 35.54226081 -48.63537419 33.89699427 -48.6649456 32.25195503 C-48.85406432 21.12469107 -47.98592022 11.8186756 -40.25584412 3.01319885 C-28.98648642 -7.85991181 -12.73525199 -8.41048212 0 0 Z " fill="#00AEEF" transform="translate(609,122)"/>
<path d="M0 0 C2.38114929 1.88514709 2.38114929 1.88514709 4.7331543 4.06665039 C6.03402481 5.27032761 6.03402481 5.27032761 7.36117554 6.49832153 C14.33951964 13.11398447 21.17554031 19.8696475 27.99682617 26.64672852 C29.87757027 28.51083897 31.76367386 30.36955725 33.6550293 32.22290039 C36.41386496 34.92679344 39.15572224 37.64693455 41.89453125 40.37109375 C42.73417923 41.18807236 43.57382721 42.00505096 44.43891907 42.8467865 C51.45636563 49.88960742 57.02302952 57.87350016 57.25 68.125 C57.1063227 76.87494734 54.35372244 84.84400751 48 91 C38.82313262 97.56103135 31.0969792 98.79834383 20 98 C8.91374471 95.34441793 0.71971334 84.89329507 -7.046875 77.19140625 C-7.98049866 76.26585434 -8.91412231 75.34030243 -9.8760376 74.38670349 C-11.83785962 72.43977917 -13.79717564 70.49036617 -15.75537109 68.53979492 C-18.2505275 66.05574985 -20.75716233 63.58362418 -23.26646042 61.1138773 C-25.68112527 58.7317656 -28.08168741 56.33559702 -30.484375 53.94140625 C-31.37920593 53.0640834 -32.27403687 52.18676056 -33.19598389 51.28285217 C-41.50968175 42.94001776 -45.29112004 35.79530186 -45.31689453 23.8359375 C-45.15795113 15.67291844 -42.3052463 9.56123956 -36.84375 3.5703125 C-26.08629973 -5.5917532 -12.28587527 -6.33469751 0 0 Z " fill="#00AEEF" transform="translate(70,346)"/>
<path d="M0 0 C7.96807357 4.47676218 12.32891356 10.5044612 15.2109375 19.2421875 C16.47848379 28.00857635 15.45926048 35.4722096 11.2109375 43.2421875 C7.84456234 47.45318895 4.07030247 51.20566651 0.234375 54.98046875 C-0.85791351 56.0742633 -1.94923531 57.16902399 -3.03964233 58.26469421 C-5.31824196 60.54760418 -7.60696858 62.81967504 -9.90380859 65.08422852 C-12.82747929 67.96814558 -15.72596458 70.87591225 -18.61742592 73.79208088 C-20.86459664 76.0535266 -23.12387829 78.30255663 -25.38694382 80.54808617 C-26.4596026 81.61495014 -27.52879757 82.68530986 -28.59422684 83.75939369 C-37.329685 92.54212799 -45.73978413 99.29323499 -58.5390625 99.4921875 C-66.14724719 99.41805172 -72.25787166 97.77337834 -77.7890625 92.2421875 C-84.94604554 83.30377201 -87.76324275 75.72127814 -86.7890625 64.2421875 C-84.92649893 52.03429803 -73.04789095 43.33297007 -64.78515625 35 C-63.86243423 34.06920624 -62.93971222 33.13841248 -61.98902893 32.17941284 C-60.05403471 30.22956619 -58.11658579 28.28219136 -56.17797852 26.3359375 C-53.7097006 23.85651727 -51.25335301 21.36560667 -48.79931545 18.87210274 C-46.42829805 16.46855147 -44.0432412 14.07908587 -41.66015625 11.6875 C-40.78910751 10.79894318 -39.91805878 9.91038635 -39.02061462 8.99490356 C-28.14327283 -1.84415513 -14.77214428 -6.93191236 0 0 Z " fill="#00AEEF" transform="translate(1143.7890625,342.7578125)"/>
<path d="M0 0 C10.03095542 6.17289565 13.47764095 20.26773375 17.58203125 30.71875 C18.0863278 31.99254862 18.59103077 33.2661864 19.09611511 34.53967285 C20.14219408 37.18042133 21.18472365 39.82253104 22.22436523 42.46582031 C23.55482869 45.84821885 24.89235767 49.22776825 26.2322588 52.60643768 C27.26977851 55.22386918 28.304629 57.84234901 29.33856773 60.4611969 C30.06937829 62.31171094 30.80162149 64.16165899 31.53388977 66.01159668 C31.97492538 67.13376587 32.415961 68.25593506 32.87036133 69.41210938 C33.25863602 70.39739624 33.64691071 71.38268311 34.04695129 72.39782715 C36.77616524 79.84958316 36.99243552 87.24805015 34.15234375 94.734375 C30.09861758 102.70441289 24.32891719 107.10587901 16.0234375 110.12890625 C7.84885057 112.4841167 0.62165506 112.78465595 -7.09765625 108.9609375 C-16.3922719 103.57527236 -19.52067904 96.18585852 -23.375 86.5 C-23.88198634 85.23921914 -24.38948716 83.97864506 -24.89746094 82.71826172 C-25.71400541 80.68903024 -26.52847364 78.65905751 -27.33776855 76.62692261 C-29.19967795 71.95692353 -31.11585439 67.31257881 -33.06399536 62.67791748 C-34.46825789 59.3260957 -35.84955932 55.96506944 -37.22735596 52.60229492 C-37.90081825 50.9708722 -38.58287075 49.34296502 -39.27410889 47.71899414 C-43.94951176 36.70469506 -47.8536048 25.91359522 -44.02246094 13.9465332 C-40.41724337 5.60926476 -34.88010165 1.5811034 -26.6875 -1.875 C-16.77651735 -5.3789973 -9.32762277 -4.87433065 0 0 Z " fill="#00AEEF" transform="translate(317,179)"/>
<path d="M0 0 C7.0506172 5.58952544 10.83920749 11.19704485 13.37109375 19.84765625 C14.62966398 32.118716 10.01383204 42.2022474 5.5078125 53.44921875 C5.01077664 54.69370276 4.51377309 55.93819969 4.01679993 57.18270874 C2.98041173 59.77418845 1.94014401 62.36407384 0.89770508 64.953125 C-0.42791484 68.24783308 -1.73825092 71.54839437 -3.0450716 74.85059547 C-4.0639344 77.41743405 -5.09364861 79.97981944 -6.1262722 82.54114914 C-6.8481665 84.33933874 -7.55892067 86.141988 -8.2693634 87.94473267 C-12.14241917 97.47642967 -15.98306731 105.08984517 -25.671875 109.375 C-32.7960248 111.77027692 -39.75593702 112.03923487 -46.890625 109.55859375 C-54.23553896 105.79965819 -59.99569179 99.75642153 -63.37890625 92.28515625 C-63.99765625 90.95484375 -63.99765625 90.95484375 -64.62890625 89.59765625 C-66.44238738 81.58811461 -65.90939535 74.97228735 -62.91015625 67.30859375 C-62.64726807 66.63030518 -62.38437988 65.9520166 -62.11352539 65.25317383 C-61.52849506 63.74768686 -60.93925016 62.24383283 -60.34643555 60.74139404 C-59.3185565 58.13194815 -58.30582633 55.51694511 -57.29492188 52.90087891 C-55.40572606 48.02283352 -53.4911683 43.15522834 -51.56542969 38.29150391 C-50.76952071 36.27487364 -49.97856035 34.25628376 -49.19238281 32.23583984 C-48.03711096 29.26834874 -46.8659731 26.30755467 -45.69140625 23.34765625 C-45.34746826 22.45481934 -45.00353027 21.56198242 -44.64916992 20.64208984 C-41.05725436 11.69076774 -35.96577513 4.06884445 -27.37890625 -0.71484375 C-18.62148308 -4.36155188 -8.24142297 -5.51404558 0 0 Z " fill="#00AEEF" transform="translate(895.37890625,179.71484375)"/>
</svg>
